<svg width="36" height="36" viewBox="0 0 36 36" fill="none" xmlns="http://www.w3.org/2000/svg">
<circle cx="15" cy="7" r="7" fill="url(#paint0_linear)"/>
<path d="M8.50054 23.6C6.419 24.7751 4.73584 26.5452 3.66685 28.6832C2.59785 30.8212 2.19173 33.2297 2.50053 35.6C4.87085 35.9088 7.27939 35.5027 9.41738 34.4337C11.5554 33.3647 13.3254 31.6815 14.5005 29.6" fill="url(#paint1_linear)"/>
<path d="M2 22C5.56618 22.4238 8.88609 24.0351 11.4255 26.5745C13.2455 28.3945 14.5888 30.6154 15.3598 33.0405C15.7948 34.4087 17.3839 35.1766 18.4089 34.1713C19.1344 33.4598 19.7694 32.6562 20.2964 31.7779C21.1111 30.4202 21.6466 28.9187 21.8772 27.3613C21.9979 26.5457 22.5168 25.8295 23.2716 25.4976C26.0981 24.2549 28.565 22.3023 30.4267 19.82C32.5627 16.9721 33.8062 13.5547 34 10C34 8.4087 33.3679 6.88258 32.2426 5.75736C31.1174 4.63214 29.5913 4 28 4C24.4453 4.19382 21.0279 5.43733 18.18 7.5733C15.6977 9.43504 13.7451 11.9019 12.5024 14.7284C12.1705 15.4832 11.4543 16.0021 10.6387 16.1228C9.08125 16.3534 7.5798 16.8889 6.22213 17.7035C4.47234 18.7534 3.01918 20.2322 2 22Z" fill="url(#paint2_linear)"/>
<path d="M26.5 14C27.8807 14 29 12.8807 29 11.5C29 10.1193 27.8807 9 26.5 9C25.1193 9 24 10.1193 24 11.5C24 12.8807 25.1193 14 26.5 14Z" fill="#253544"/>
<defs>
<linearGradient id="paint0_linear" x1="15" y1="0" x2="8" y2="13.8836" gradientUnits="userSpaceOnUse">
<stop stop-color="#C29117"/>
<stop offset="1" stop-color="#FFD15F"/>
</linearGradient>
<linearGradient id="paint1_linear" x1="8.45025" y1="23.6" x2="2.39996" y2="35.6" gradientUnits="userSpaceOnUse">
<stop stop-color="#C29117"/>
<stop offset="1" stop-color="#FFD15F"/>
</linearGradient>
<linearGradient id="paint2_linear" x1="34" y1="4" x2="2" y2="36" gradientUnits="userSpaceOnUse">
<stop stop-color="#8DEFFF"/>
<stop offset="1" stop-color="#196F7D"/>
</linearGradient>
</defs>
</svg>
